<?xml version="1.0" encoding="utf-8"?>
<!-- Generator: Adobe Illustrator 16.0.3, SVG Export Plug-In . SVG Version: 6.00 Build 0)  -->
<!DOCTYPE svg PUBLIC "-//W3C//DTD SVG 1.1//EN" "http://www.w3.org/Graphics/SVG/1.1/DTD/svg11.dtd">
<svg version="1.1" id="Capa_1" xmlns="http://www.w3.org/2000/svg" xmlns:xlink="http://www.w3.org/1999/xlink" x="0px" y="0px"
	 width="336.033px" height="330.033px" viewBox="0 0 336.033 330.033" enable-background="new 0 0 336.033 330.033"
	 xml:space="preserve">
<g>
	<path fill-rule="evenodd" clip-rule="evenodd" fill="#FF6719" d="M169.765,176.299c20.246,33.637,40.306,66.959,60.358,100.285
		c5.059,8.404,9.929,16.929,15.233,25.175c2.083,3.237,1.303,4.314-1.907,5.534c-4.336,1.647-8.617,3.542-12.682,5.771
		c-3.305,1.813-4.738,0.885-6.453-2.208c-16.843-30.369-33.842-60.652-50.799-90.958c-0.615-1.102-1.258-2.188-2.253-3.918
		c-3.542,5.947-6.769,11.31-9.941,16.704c-15.501,26.361-31.062,52.688-46.394,79.146c-2.077,3.584-3.806,4.112-7.216,1.983
		c-3.367-2.103-7.006-3.824-10.663-5.392c-2.53-1.084-3.169-2.068-1.649-4.681c24.41-41.939,48.73-83.931,73.081-125.904
		C168.725,177.415,169.109,177.074,169.765,176.299z"/>
	<path fill-rule="evenodd" clip-rule="evenodd" fill="#FF6719" d="M124.968,172.03c-17.095,0-33.213,0-49.331,0
		c-17.167,0-34.333-0.08-51.498,0.07c-3.288,0.029-4.401-0.802-4.022-4.19c0.405-3.626,0.409-7.334,0.188-10.981
		c-0.239-3.936,1.217-5.011,5.154-4.989c31.165,0.166,62.331,0.092,93.497,0.092c13.16,0,26.319,0,39.469,0
		c0.634,1.896-0.736,2.954-1.401,4.138c-25.43,45.23-50.935,90.418-76.322,135.671c-1.568,2.796-2.527,3.534-5.083,1.038
		c-3.687-3.603-7.578-7.033-11.649-10.192c-2.78-2.157-2.991-3.769-1.108-6.881c19.801-32.741,39.407-65.602,59.061-98.432
		C122.764,175.966,123.548,174.524,124.968,172.03z"/>
	<path fill-rule="evenodd" clip-rule="evenodd" fill="#FF6719" d="M261.738,295.405c-26.927-47.825-53.591-95.184-80.585-143.128
		c1.911-0.1,3.3-0.236,4.69-0.236c42.998-0.012,85.998,0.058,128.996-0.112c4.334-0.017,5.486,1.456,5.246,5.404
		c-0.211,3.481-0.237,7.029,0.191,10.48c0.473,3.789-1.109,4.294-4.426,4.287c-31.331-0.063-62.662,0.041-93.992,0.096
		c-1.806,0.003-3.611,0.001-5.459,0.001c-0.404,2.334,1.174,3.612,2.051,5.079c19.613,32.854,39.236,65.705,59.025,98.454
		c1.818,3.011,1.905,4.646-0.973,6.904C271.538,286.529,266.927,290.875,261.738,295.405z"/>
	<path fill-rule="evenodd" clip-rule="evenodd" fill="#FF6719" d="M203.363,58.149c-0.083,18.469-15.08,33.257-33.512,33.043
		c-18.466-0.214-32.887-15.037-32.82-33.733c0.067-18.47,15.172-33.389,33.506-33.094C189.101,24.664,203.445,39.429,203.363,58.149
		z"/>
	<path fill-rule="evenodd" clip-rule="evenodd" fill="#FF6719" d="M212.674,121.258c0-6.297,0.105-12.597-0.051-18.89
		c-0.064-2.636,0.832-3.474,3.437-3.387c5.155,0.172,10.323,0.136,15.481,0.012c2.172-0.052,2.875,0.671,2.86,2.851
		c-0.083,12.653-0.075,25.309-0.007,37.962c0.012,2.117-0.639,2.986-2.838,2.945c-5.492-0.102-10.989-0.091-16.482-0.005
		c-1.924,0.03-3.009-1.108-4.218-2.266c-6.952-6.653-13.928-13.281-21.493-20.486c0,6.532-0.175,12.391,0.067,18.233
		c0.138,3.32-0.586,4.832-4.3,4.572c-4.639-0.324-9.322-0.18-13.979-0.037c-2.505,0.076-3.555-0.628-3.529-3.347
		c0.117-12.32,0.105-24.643,0.006-36.963c-0.02-2.52,0.635-3.572,3.345-3.475c5.155,0.185,10.323,0.131,15.481,0.015
		c2.009-0.046,3.48,0.573,4.79,2.065c6.476,7.37,13.003,14.696,19.513,22.037C211.396,122.483,212.035,121.87,212.674,121.258z"/>
	<path fill-rule="evenodd" clip-rule="evenodd" fill="#FF6719" d="M127.821,142.722c-8.329,0.001-16.661-0.14-24.984,0.072
		c-3.163,0.081-3.913-0.977-3.872-3.991c0.162-11.991,0.179-23.987-0.01-35.978c-0.049-3.13,0.867-3.893,3.915-3.864
		c16.323,0.149,32.65,0.228,48.97-0.036c4.283-0.069,4.082,2.161,3.875,4.943c-0.188,2.521,1.31,5.79-3.72,5.59
		c-8.648-0.344-17.32-0.056-25.981-0.12c-2.346-0.018-4.119-0.107-4.079,3.244c0.041,3.487,2.269,2.577,4.052,2.592
		c6.996,0.057,14.003,0.267,20.984-0.066c4.282-0.204,3.571,2.479,3.327,4.782c-0.245,2.313,1.899,6.047-3.329,5.887
		c-7.156-0.219-14.325,0.027-21.485-0.096c-2.469-0.042-3.527,0.535-3.544,3.282c-0.017,2.719,0.917,3.324,3.455,3.287
		c9.326-0.135,18.664,0.191,27.979-0.157c4.57-0.171,3.691,2.592,3.632,5.096c-0.061,2.559,1.257,5.799-3.701,5.618
		C144.819,142.499,136.316,142.722,127.821,142.722z"/>
	<path fill-rule="evenodd" clip-rule="evenodd" fill="#FF6719" d="M37.468,129.031c4.285,0.275,9.138-0.69,13.791,3.078
		c3.458,2.801,8.614,1.61,13.036,0.612c1.078-0.244,2.428-0.8,2.383-2.142c-0.042-1.24-1.177-1.939-2.338-2.32
		c-5.245-1.722-10.758-2.021-16.142-3.012c-5.237-0.964-10.501-1.863-15.178-4.574c-7.678-4.452-7.92-12.806-0.468-17.618
		c7.945-5.13,17.054-5.216,26.014-5.259c5.959-0.029,11.976,0.54,17.611,2.872c1.527,0.632,3.04,1.379,4.407,2.301
		c2.801,1.888,6.368,4.43,5.554,7.599c-0.692,2.696-4.958,1.048-7.57,1.058c-5.799,0.02-11.725,1.189-17.142-2.688
		c-2.543-1.821-6.161-0.817-9.29-0.52c-1.062,0.101-2.502,0.423-2.704,1.787c-0.264,1.777,1.41,2.279,2.562,2.521
		c6.009,1.264,12.061,2.324,18.097,3.463c4.413,0.833,8.787,1.8,12.771,4.002c7.502,4.149,8.171,12.221,1.334,17.416
		c-3.638,2.765-7.927,4.084-12.397,4.892c-11.275,2.039-22.483,2.275-33.509-1.338c-4.48-1.468-8.625-3.606-11.23-7.801
		c-1.593-2.566-2.18-4.71,2.253-4.363C31.797,129.19,34.306,129.031,37.468,129.031z"/>
	<path fill-rule="evenodd" clip-rule="evenodd" fill="#FF6719" d="M314.848,142.721c-7.481,0-13.788-0.038-20.094,0.023
		c-1.836,0.018-3.377-0.289-3.869-2.291c-0.832-3.386-3.245-3.595-6.133-3.467c-3.988,0.178-7.994,0.14-11.986,0.016
		c-3.409-0.106-6.713-0.414-7.703,4.087c-0.349,1.583-1.859,1.644-3.254,1.64c-6.305-0.02-12.607-0.009-18.818-0.009
		c-0.826-1.57,0.229-2.431,0.751-3.354c6.948-12.294,14.024-24.517,20.843-36.882c1.506-2.73,3.223-3.663,6.262-3.521
		c6.311,0.297,13.85-1.88,18.619,0.878c4.743,2.742,6.746,10.265,9.887,15.728C304.381,124.315,309.356,133.092,314.848,142.721z"/>
	<path fill-rule="evenodd" clip-rule="evenodd" fill="#FFFFFF" d="M278.158,112.726c2.224,4.638,3.993,8.361,5.795,12.07
		c0.967,1.993,0.729,2.824-1.827,3.027c-11.016,0.874-11.206,0.694-6.718-9.313C276.146,116.868,276.953,115.256,278.158,112.726z"
		/>
</g>
</svg>
